nColumns=28
nRows=33
DataType=double
version=3
OpenSimVersion=4.1
endheader
time	ground_force_1_vx	ground_force_1_vy	ground_force_1_vz	ground_force_1_px	ground_force_1_py	ground_force_1_pz	ground_force_1_mx	ground_force_1_my	ground_force_1_mz	ground_force_2_vx	ground_force_2_vy	ground_force_2_vz	ground_force_2_px	ground_force_2_py	ground_force_2_pz	ground_force_2_mx	ground_force_2_my	ground_force_2_mz	ground_force_3_vx	ground_force_3_vy	ground_force_3_vz	ground_force_3_px	ground_force_3_py	ground_force_3_pz	ground_force_3_mx	ground_force_3_my	ground_force_3_mz
0	6.13334	391.136	-33.0625	-0.219258	0.006	-0.408155	0	0.121261	0	-9.35538	198.527	33.9748	-0.136271	0.006	-0.781158	0	0.749211	0	0	0	0	0	0	0	0	0	0
0.01	6.07318	390.433	-32.9367	-0.219122	0.006	-0.408302	0	0.0822579	0	-9.3058	198.928	33.9926	-0.136371	0.006	-0.78107	0	0.738597	0	0	0	0	0	0	0	0	0	0
0.02	5.98644	389.768	-32.8699	-0.218714	0.006	-0.408394	0	0.0569262	0	-9.25029	199.397	33.9736	-0.13659	0.006	-0.781094	0	0.733252	0	0	0	0	0	0	0	0	0	0
0.03	5.85138	389.76	-32.9508	-0.218106	0.006	-0.408288	0	0.0717943	0	-9.20485	199.893	33.9755	-0.136759	0.006	-0.781066	0	0.737041	0	0	0	0	0	0	0	0	0	0
0.04	5.61971	389.792	-33.1183	-0.217439	0.006	-0.408131	0	0.0813445	0	-9.14999	200.699	34.0129	-0.136994	0.006	-0.781066	0	0.748719	0	0	0	0	0	0	0	0	0	0
0.05	5.26003	389.35	-33.2659	-0.216692	0.006	-0.408031	0	0.0871902	0	-9.11471	201.632	34.1654	-0.137315	0.006	-0.78113	0	0.769244	0	0	0	0	0	0	0	0	0	0
0.06	4.99495	388.701	-33.2963	-0.215796	0.006	-0.407809	0	0.0991111	0	-9.13679	202.613	34.3854	-0.13757	0.006	-0.781313	0	0.771308	0	0	0	0	0	0	0	0	0	0
0.07	4.76828	387.575	-33.2129	-0.214812	0.006	-0.407542	0	0.113233	0	-9.1514	203.766	34.6365	-0.137801	0.006	-0.781446	0	0.75663	0	0	0	0	0	0	0	0	0	0
0.08	4.42511	386.089	-32.9882	-0.213795	0.006	-0.407367	0	0.129751	0	-9.14463	205.21	34.9274	-0.138086	0.006	-0.781675	0	0.771429	0	0	0	0	0	0	0	0	0	0
0.09	4.05428	384.528	-32.7502	-0.212649	0.006	-0.407273	0	0.136509	0	-9.10476	206.856	35.2453	-0.138341	0.006	-0.781835	0	0.784807	0	0	0	0	0	0	0	0	0	0
0.1	3.67606	383.039	-32.6121	-0.21138	0.006	-0.406965	0	0.101731	0	-9.10399	208.72	35.6347	-0.138731	0.006	-0.782024	0	0.788677	0	0	0	0	0	0	0	0	0	0
0.11	3.16085	381.275	-32.4679	-0.210032	0.006	-0.406664	0	0.0580713	0	-9.14778	210.798	36.1474	-0.138986	0.006	-0.782131	0	0.791366	0	0	0	0	0	0	0	0	0	0
0.12	2.57268	379.438	-32.2074	-0.208654	0.006	-0.406529	0	0.0136748	0	-9.15518	213.144	36.8403	-0.139326	0.006	-0.782125	0	0.782143	0	0	0	0	0	0	0	0	0	0
0.13	2.01494	378.006	-31.9737	-0.207191	0.006	-0.406467	0	-0.0241946	0	-9.113	215.39	37.3844	-0.139787	0.006	-0.78233	0	0.776232	0	0	0	0	0	0	0	0	0	0
0.14	1.49602	376.807	-31.7191	-0.205721	0.006	-0.406417	0	-0.0313666	0	-9.03574	217.315	37.8177	-0.139985	0.006	-0.782593	0	0.773179	0	0	0	0	0	0	0	0	0	0
0.15	0.995898	375.848	-31.501	-0.204223	0.006	-0.406325	0	-0.0469034	0	-9.0431	219.136	38.2122	-0.140182	0.006	-0.782723	0	0.756719	0	0	0	0	0	0	0	0	0	0
0.16	0.330612	375.331	-31.5325	-0.202798	0.006	-0.406106	0	-0.0472412	0	-9.2498	220.633	38.4379	-0.140192	0.006	-0.782827	0	0.720469	0	0	0	0	0	0	0	0	0	0
0.17	-0.493767	375.109	-31.7423	-0.201464	0.006	-0.405831	0	-0.0408312	0	-9.4454	221.559	38.5604	-0.13996	0.006	-0.783025	0	0.705813	0	0	0	0	0	0	0	0	0	0
0.18	-1.29208	374.822	-32.0863	-0.200304	0.006	-0.405407	0	-0.0768578	0	-9.56374	222.091	38.6424	-0.139636	0.006	-0.783217	0	0.723934	0	0	0	0	0	0	0	0	0	0
0.19	-1.92684	374.473	-32.4788	-0.199221	0.006	-0.404977	0	-0.108198	0	-9.74425	222.387	38.6736	-0.139183	0.006	-0.783403	0	0.744472	0	0	0	0	0	0	0	0	0	0
0.2	-2.53278	374.271	-32.8413	-0.19815	0.006	-0.404703	0	-0.128717	0	-9.95154	222.438	38.6714	-0.138384	0.006	-0.783386	0	0.724	0	0	0	0	0	0	0	0	0	0
0.21	-3.0877	374.432	-33.2175	-0.197207	0.006	-0.404505	0	-0.180403	0	-10.1099	222.363	38.6673	-0.137506	0.006	-0.783246	0	0.677558	0	0	0	0	0	0	0	0	0	0
0.22	-3.51751	374.546	-33.5703	-0.196433	0.006	-0.404318	0	-0.25849	0	-10.2985	222.382	38.6768	-0.136946	0.006	-0.783468	0	0.655252	0	0	0	0	0	0	0	0	0	0
0.23	-3.94891	373.756	-33.7206	-0.195814	0.006	-0.404243	0	-0.338224	0	-10.5293	222.207	38.6062	-0.136438	0.006	-0.78384	0	0.647318	0	0	0	0	0	0	0	0	0	0
0.24	-4.38799	372.384	-33.6608	-0.195262	0.006	-0.404135	0	-0.424275	0	-10.6998	221.625	38.508	-0.136028	0.006	-0.7837	0	0.63738	0	0	0	0	0	0	0	0	0	0
0.25	-4.91145	370.687	-33.4699	-0.194705	0.006	-0.403963	0	-0.503709	0	-10.8509	221.029	38.4536	-0.13559	0.006	-0.783621	0	0.664417	0	0	0	0	0	0	0	0	0	0
0.26	-5.57309	368.963	-33.3623	-0.194016	0.006	-0.403822	0	-0.583898	0	-11.0234	220.565	38.4096	-0.134983	0.006	-0.78389	0	0.704074	0	0	0	0	0	0	0	0	0	0
0.27	-6.51565	366.834	-33.2586	-0.193208	0.006	-0.403802	0	-0.685298	0	-11.1968	219.812	38.3658	-0.134155	0.006	-0.784033	0	0.704017	0	0	0	0	0	0	0	0	0	0
0.28	-7.99326	364.553	-32.9021	-0.192404	0.006	-0.403692	0	-0.793269	0	-11.3613	218.889	38.4045	-0.133263	0.006	-0.78411	0	0.692728	0	0	0	0	0	0	0	0	0	0
0.29	-9.84442	362.803	-32.176	-0.191625	0.006	-0.403666	0	-0.907019	0	-11.5368	218.129	38.577	-0.132675	0.006	-0.784116	0	0.705311	0	0	0	0	0	0	0	0	0	0
0.3	-11.7355	361.775	-31.3552	-0.191103	0.006	-0.403916	0	-1.04654	0	-11.6194	217.668	38.7067	-0.1323	0.006	-0.784219	0	0.721267	0	0	0	0	0	0	0	0	0	0
0.31	-13.6051	360.675	-30.6356	-0.190996	0.006	-0.404244	0	-1.16428	0	-11.784	217.437	38.7767	-0.131859	0.006	-0.784315	0	0.729582	0	0	0	0	0	0	0	0	0	0
0.32	-15.1863	358.843	-30.1385	-0.19138	0.006	-0.404571	0	-1.24468	0	-12.4417	217.439	38.9096	-0.131393	0.006	-0.784354	0	0.74132	0	0	0	0	0	0	0	0	0	0
